<svg xmlns="http://www.w3.org/2000/svg" viewBox="0 0 131.48 131.48" xmlns:v="https://vecta.io/nano"><path d="M65.74 0a65.74 65.74 0 1 0 65.74 65.74A65.74 65.74 0 0 0 65.74 0zm31.63 26.27a18.64 18.64 0 0 1 10.23 21.09c-2.23 9.51-10.93 14.8-18.5 14.26 3.25-13.62-.9-24.07-13.38-30.84 4.54-5.78 13.89-8.23 21.65-4.51zM84.3 53.3c.07 11.12-8.76 18.57-18.59 18.78C55.93 71.93 47 64.54 47 53.39c0-12 10.21-18.56 18.46-18.64S84.22 41.14 84.3 53.3zM33 26.8a18.45 18.45 0 0 1 22.76 3.92C43.17 37.63 39 48 42.26 61.54 33.88 62 26.45 56.52 24 48.2a18.5 18.5 0 0 1 9-21.4zM21.86 94.15c-3.19-1.51-7-4.28-6.67-7.55 1.06-9.24 5.81-17.19 15.09-21.47a70.72 70.72 0 0 0 7.57 2.17 67.83 67.83 0 0 0 7.77.44l3.05 3.57A33.61 33.61 0 0 0 32.94 96.8s-7.24-.8-11.08-2.65zM65.68 107C36.74 107 39 96.72 39 96.72c1.36-10.61 7-17.42 15.27-21.51a25.18 25.18 0 0 0 22.69.07c7.66 3.32 14 10.2 15.45 21.52-.03 0 2.59 10.2-26.73 10.2zm43.91-12.85C105.75 96 98.51 96.8 98.51 96.8a33.61 33.61 0 0 0-15.73-25.49l3-3.57a67.83 67.83 0 0 0 7.77-.44 70.88 70.88 0 0 0 7.58-2.17c9.25 4.28 14 12.23 15.08 21.47.43 3.27-3.43 6.04-6.62 7.55z" fill="#1ED760"/></svg>