<svg xmlns="http://www.w3.org/2000/svg" viewBox="0 0 490.1 131.48" xmlns:v="https://vecta.io/nano"><style><![CDATA[.A{letter-spacing:-0.08em}]]></style><text class="A" transform="translate(147.15 94.95)" font-size="87" font-family="Gotham-Bold,Gotham" font-weight="700" fill="#1ED760">Squadify</text><path d="M65.74 0C29.433 0 0 29.433 0 65.74s29.433 65.74 65.74 65.74 65.74-29.433 65.74-65.74A65.74 65.74 0 0 0 65.74 0zm31.63 26.27a18.64 18.64 0 0 1 10.23 21.09c-2.23 9.51-10.93 14.8-18.5 14.26 3.25-13.59-.9-24.07-13.38-30.84 4.54-5.75 13.89-8.23 21.65-4.51zm-13.07 27c.07 11.12-8.76 18.57-18.59 18.79-9.78-.16-18.68-7.55-18.68-18.7 0-12 10.22-18.56 18.46-18.64S84.22 41.14 84.3 53.3zM32.96 26.8a18.45 18.45 0 0 1 22.75 3.94c-12.54 6.89-16.74 17.25-13.45 30.81A18.07 18.07 0 0 1 24.01 48.2a18.5 18.5 0 0 1 8.95-21.4zM21.87 94.15c-3.19-1.51-7-4.28-6.67-7.55 1.06-9.24 5.83-17.19 15.09-21.47a70.72 70.72 0 0 0 7.58 2.17 65.63 65.63 0 0 0 7.77.44l3 3.57A33.61 33.61 0 0 0 32.91 96.8c0 0-7.21-.84-11.04-2.65zM65.69 107c-28.95 0-26.72-10.26-26.72-10.26 1.36-10.61 7-17.42 15.27-21.51a25.18 25.18 0 0 0 22.69.07c7.66 3.32 14 10.2 15.45 21.52 0-.02 2.57 10.18-26.7 10.18zm43.91-12.85c-3.84 1.81-11.08 2.65-11.08 2.65a33.61 33.61 0 0 0-15.74-25.49l3.09-3.57a65.63 65.63 0 0 0 7.77-.44 70.88 70.88 0 0 0 7.58-2.17c9.25 4.28 14 12.23 15.08 21.47.34 3.27-3.51 6.04-6.71 7.55z" fill="#1ED760"/></svg>