<svg xmlns="http://www.w3.org/2000/svg" viewBox="0 0 490.1 131.48"><path d="M176.12 95.83a38.74 38.74 0 0 1-25.84-9.75l7.92-9.48c5.48 4.52 11.22 7.39 18.19 7.39 5.48 0 8.78-2.17 8.78-5.74v-.17c0-3.4-2.09-5.14-12.26-7.75-12.27-3.13-20.19-6.52-20.19-18.62v-.17c0-11 8.87-18.36 21.32-18.36a35.27 35.27 0 0 1 22.62 7.75l-7 10.09c-5.4-3.74-10.7-6-15.84-6s-7.83 2.35-7.83 5.31v.18c0 4 2.61 5.3 13.14 8 12.39 3.23 19.35 7.65 19.35 18.23v.18c0 12.12-9.22 18.91-22.36 18.91ZM235.87 108.88V88.26c-3.22 4.35-7.65 7.57-14.53 7.57-10.87 0-21.23-8.53-21.23-24.1v-.18c0-15.57 10.18-24.1 21.23-24.1a17.91 17.91 0 0 1 14.53 7v-6.13h13.23v60.56Zm.18-37.33c0-7.74-5.13-12.88-11.31-12.88s-11.4 5-11.4 12.88v.19c0 7.74 5.22 12.87 11.4 12.87s11.33-5.14 11.33-12.87ZM283.57 94.96v-6.62c-3.05 3.92-7 7.49-13.66 7.49-10 0-15.84-6.62-15.84-17.32V48.32h13.23v26c0 6.26 3 9.48 8 9.48s8.27-3.22 8.27-9.48v-26h13.22v46.64ZM329.42 94.96v-5c-3.22 3.57-7.66 5.92-14.1 5.92-8.79 0-16-5-16-14.27v-.18c0-10.18 7.75-14.87 18.8-14.87a33.13 33.13 0 0 1 11.39 1.91v-.83c0-5.49-3.39-8.53-10-8.53a34.41 34.41 0 0 0-12.88 2.52l-3.3-10.09a41.12 41.12 0 0 1 18.09-3.74c14.45 0 20.8 7.48 20.8 20.1v27.06Zm.26-18.8a20.56 20.56 0 0 0-8.44-1.74c-5.66 0-9.14 2.26-9.14 6.44v.17c0 3.57 3 5.66 7.22 5.66 6.18 0 10.36-3.39 10.36-8.18ZM380.75 94.96v-6.7c-3.22 4.35-7.66 7.57-14.53 7.57-10.88 0-21.23-8.53-21.23-24.1v-.18c0-15.57 10.18-24.1 21.23-24.1a17.93 17.93 0 0 1 14.53 7v-23h13.22v63.52Zm.17-23.41c0-7.74-5.13-12.88-11.31-12.88s-11.4 5-11.4 12.88v.19c0 7.74 5.22 12.87 11.4 12.87s11.31-5.14 11.31-12.87ZM399.54 43.19V31.44h13.92v11.75Zm.34 51.77V48.32h13.23v46.64ZM439.12 41.97c-3 0-4.78 1.57-4.78 5.05v1.82h10.7v10.79h-10.53v35.33h-13.23V59.63h-5.48V48.74h5.48v-3c0-10.27 5.14-15 14.45-15a29 29 0 0 1 9.39 1.31v11a16.64 16.64 0 0 0-6-1.08Z"/><path d="M472.18 96.09c-3.57 9.48-7.4 13.05-15.31 13.05a21.9 21.9 0 0 1-11.75-3.22l4.44-9.57a12 12 0 0 0 5.65 1.82c2.27 0 3.48-.69 4.62-3l-18.28-46.85h14l10.62 31.76 10.18-31.76h13.74Z"/><g data-name="3 Semi Smooth"><path d="M65.74 0a65.74 65.74 0 1 0 65.74 65.74A65.74 65.74 0 0 0 65.74 0Zm31.63 26.27a18.64 18.64 0 0 1 10.23 21.09c-2.23 9.51-10.93 14.8-18.5 14.26 3.25-13.59-.9-24.07-13.38-30.84 4.54-5.75 13.89-8.23 21.65-4.51Zm-13.07 27c.07 11.12-8.76 18.57-18.59 18.79-9.78-.16-18.68-7.55-18.68-18.7 0-12 10.22-18.56 18.46-18.64S84.22 41.14 84.3 53.3ZM32.96 26.8a18.45 18.45 0 0 1 22.75 3.94c-12.54 6.89-16.74 17.25-13.45 30.81A18.07 18.07 0 0 1 24.01 48.2a18.5 18.5 0 0 1 8.95-21.4ZM21.87 94.15c-3.19-1.51-7-4.28-6.67-7.55 1.06-9.24 5.83-17.19 15.09-21.47a70.72 70.72 0 0 0 7.58 2.17 65.63 65.63 0 0 0 7.77.44c.86 1 1.89 2.2 3 3.57A33.61 33.61 0 0 0 32.91 96.8s-7.21-.84-11.04-2.65ZM65.69 107c-28.95 0-26.72-10.26-26.72-10.26 1.36-10.61 7-17.42 15.27-21.51a25.18 25.18 0 0 0 22.69.07c7.66 3.32 14 10.2 15.45 21.52 0-.02 2.57 10.18-26.7 10.18Zm43.91-12.85c-3.84 1.81-11.08 2.65-11.08 2.65a33.61 33.61 0 0 0-15.74-25.49l3.09-3.57a65.63 65.63 0 0 0 7.77-.44 70.88 70.88 0 0 0 7.58-2.17c9.25 4.28 14 12.23 15.08 21.47.34 3.27-3.51 6.04-6.71 7.55Z"/></g></svg>